<svg width="36" height="36" viewBox="0 0 36 36" fill="none" xmlns="http://www.w3.org/2000/svg">
<path d="M30.375 10.125H25.4419C25.4967 10.0786 25.553 10.0336 25.6064 9.98439C26.0335 9.60495 26.3777 9.14146 26.6175 8.62293C26.8573 8.10439 26.9875 7.54195 27 6.97079C27.0185 6.34596 26.909 5.72394 26.6784 5.14293C26.4478 4.56192 26.1009 4.03417 25.6589 3.59209C25.217 3.15 24.6893 2.80291 24.1084 2.57213C23.5274 2.34134 22.9055 2.23172 22.2806 2.25001C21.7092 2.26232 21.1465 2.39244 20.6277 2.63224C20.1089 2.87204 19.6452 3.21634 19.2656 3.6436C18.7404 4.25236 18.3133 4.93938 18 5.67985C17.6867 4.93938 17.2596 4.25236 16.7344 3.6436C16.3548 3.21634 15.8911 2.87204 15.3723 2.63224C14.8535 2.39244 14.2908 2.26232 13.7194 2.25001C13.0945 2.23172 12.4726 2.34134 11.8916 2.57213C11.3107 2.80291 10.783 3.15 10.3411 3.59209C9.89912 4.03417 9.55219 4.56192 9.32157 5.14293C9.09096 5.72394 8.98153 6.34596 9 6.97079C9.0125 7.54195 9.14272 8.10439 9.38251 8.62293C9.6223 9.14146 9.9665 9.60495 10.3936 9.98439C10.447 10.0308 10.5033 10.0758 10.5581 10.125H5.625C5.02826 10.125 4.45597 10.3621 4.03401 10.784C3.61205 11.206 3.375 11.7783 3.375 12.375V16.875C3.375 17.4717 3.61205 18.044 4.03401 18.466C4.45597 18.888 5.02826 19.125 5.625 19.125V28.125C5.625 28.7217 5.86205 29.294 6.28401 29.716C6.70597 30.138 7.27826 30.375 7.875 30.375H28.125C28.7217 30.375 29.294 30.138 29.716 29.716C30.1379 29.294 30.375 28.7217 30.375 28.125V19.125C30.9717 19.125 31.544 18.888 31.966 18.466C32.3879 18.044 32.625 17.4717 32.625 16.875V12.375C32.625 11.7783 32.3879 11.206 31.966 10.784C31.544 10.3621 30.9717 10.125 30.375 10.125ZM20.9531 5.13423C21.1313 4.93752 21.3481 4.77977 21.5901 4.67087C21.8321 4.56197 22.094 4.50428 22.3594 4.50142H22.4283C22.7393 4.50336 23.0468 4.56736 23.3328 4.68967C23.6187 4.81198 23.8774 4.99014 24.0936 5.2137C24.3099 5.43727 24.4793 5.70174 24.592 5.99163C24.7047 6.28151 24.7584 6.59098 24.75 6.90189C24.7471 7.16724 24.6894 7.42914 24.5805 7.67114C24.4716 7.91314 24.3139 8.13001 24.1172 8.30814C22.7827 9.48939 20.5678 9.90564 19.1953 10.0519C19.3641 8.56267 19.8281 6.39845 20.9531 5.13423ZM11.9405 5.18485C12.3763 4.74904 12.9666 4.50292 13.583 4.50001H13.6519C13.9172 4.50287 14.1791 4.56056 14.4211 4.66946C14.6631 4.77836 14.88 4.93612 15.0581 5.13282C16.238 6.46595 16.6542 8.67657 16.8005 10.0434C15.4336 9.90282 13.223 9.48095 11.8898 8.3011C11.6931 8.12298 11.5354 7.90611 11.4265 7.66411C11.3176 7.42211 11.2599 7.16021 11.257 6.89485C11.2483 6.57878 11.3039 6.26422 11.4204 5.97028C11.5369 5.67633 11.7119 5.40912 11.9348 5.18485H11.9405ZM5.625 12.375H16.875V16.875H5.625V12.375ZM7.875 19.125H16.875V28.125H7.875V19.125ZM28.125 28.125H19.125V19.125H28.125V28.125ZM30.375 16.875H19.125V12.375H30.375V16.875Z" fill="#F36D36"/>
</svg>
